<svg id="Capa_1" enable-background="new 0 0 512 512" height="512" viewBox="0 0 512 512" width="512" xmlns="http://www.w3.org/2000/svg"><g><g><path d="m428.893 67.215c-27.145-24.874-59.67-43.966-95.629-55.337h-154.527c-35.96 11.371-68.484 30.463-95.629 55.337l-77.119 133.574c-3.91 17.783-5.989 36.253-5.989 55.211s2.079 37.428 5.989 55.211l77.119 133.573c27.145 24.874 59.67 43.966 95.629 55.337h154.526c35.96-11.371 68.484-30.463 95.629-55.337l77.119-133.573c3.91-17.783 5.989-36.253 5.989-55.211s-2.079-37.428-5.989-55.211z" fill="#efedee"/></g><g><path d="m83.089 67.248-77.119 133.573c-3.905 17.772-5.97 36.234-5.97 55.179 0 18.958 2.079 37.428 5.989 55.211l77.119 133.573c27.145 24.874 59.67 43.967 95.63 55.337h154.527v.007c35.967-11.375 68.495-30.481 95.642-55.366l23.603-40.881c-34.895 17.831-74.414 27.901-116.291 27.901-141.385 0-256-114.615-256-256 0-50.153 14.435-96.929 39.359-136.424-13.002 8.204-25.208 17.551-36.489 27.89z" fill="#d4d4d5"/></g><path d="m462.493 145.441-7.5-12.99-191.493 110.559v-221.118h-15v221.118l-191.493-110.559-7.5 12.99 191.493 110.559-191.493 110.559 7.5 12.99 191.493-110.559v221.118h15v-221.118l191.493 110.559 7.5-12.99-191.493-110.559z" fill="#d4d4d5"/><g><path d="m470.202 169.971h15v172.058h-15z" fill="#d4d4d5"/></g><g><path d="m359.351-22.029h15v172.058h-15z" fill="#d4d4d5" transform="matrix(.5 -.866 .866 .5 128 349.702)"/></g><g><path d="m59.12 56.5h172.058v15h-172.058z" fill="#d4d4d5" transform="matrix(.866 -.5 .5 .866 -12.554 81.15)"/></g><g><path d="m26.797 169.971h15v172.058h-15z" fill="#9ea2a3"/></g><g><path d="m137.649 361.971h15v172.058h-15z" fill="#9ea2a3" transform="matrix(.5 -.866 .866 .5 -315.405 349.701)"/></g><g><path d="m280.822 440.5h172.058v15h-172.058z" fill="#9ea2a3" transform="matrix(.866 -.5 .5 .866 -174.852 243.449)"/></g><g><path d="m189.038 205.444 56.66-32.713c6.375-3.68 14.229-3.68 20.604 0l56.66 32.713c6.375 3.68 10.302 10.482 10.302 17.843v65.425c0 7.361-3.927 14.163-10.302 17.843l-56.66 32.713c-6.375 3.68-14.229 3.68-20.604 0l-56.66-32.713c-6.375-3.68-10.302-10.482-10.302-17.843v-65.425c0-7.361 3.927-14.162 10.302-17.843z" fill="#676f72"/></g><g><path d="m256 0c-26.93 0-52.883 4.169-77.264 11.878v20.835c0 7.361 3.927 14.163 10.302 17.843l56.66 32.713c6.375 3.68 14.229 3.68 20.604 0l56.66-32.713c6.375-3.68 10.302-10.482 10.302-17.843v-20.835c-24.381-7.709-50.334-11.878-77.264-11.878z" fill="#676f72"/></g><g><path d="m322.962 461.444-56.66-32.713c-6.375-3.68-14.229-3.68-20.604 0l-56.66 32.713c-6.375 3.68-10.302 10.482-10.302 17.843v20.834c24.381 7.71 50.334 11.879 77.264 11.879s52.883-4.169 77.264-11.878v-20.834c0-7.362-3.927-14.163-10.302-17.844z" fill="#4c5659"/></g><g><path d="m5.973 200.863 18.023 10.406c6.375 3.68 14.229 3.68 20.604 0l56.66-32.713c6.375-3.68 10.302-10.482 10.302-17.843v-65.426c0-7.361-3.927-14.163-10.302-17.843l-17.986-10.384c-38.224 34.964-65.791 81.374-77.301 133.803z" fill="#676f72"/></g><g><path d="m488.004 300.731c-6.375-3.68-14.229-3.68-20.604 0l-56.66 32.713c-6.375 3.68-10.302 10.482-10.302 17.843v65.425c0 7.361 3.927 14.163 10.302 17.843l17.985 10.384c38.224-34.964 65.791-81.373 77.301-133.803z" fill="#676f72"/></g><g><path d="m101.259 333.444-56.66-32.713c-6.375-3.68-14.229-3.68-20.604 0l-18.022 10.406c11.51 52.429 39.077 98.839 77.301 133.803l17.985-10.384c6.375-3.68 10.302-10.482 10.302-17.843v-65.425c0-7.362-3.927-14.163-10.302-17.844z" fill="#4c5659"/></g><g><path d="m428.726 67.06-17.985 10.384c-6.375 3.68-10.302 10.482-10.302 17.843v65.425c0 7.361 3.927 14.163 10.302 17.843l56.66 32.713c6.375 3.68 14.229 3.68 20.604 0l18.023-10.406c-11.511-52.428-39.078-98.838-77.302-133.802z" fill="#676f72"/></g><g><path d="m401.54 423.359c1.587 4.654 4.814 8.664 9.2 11.197l17.985 10.384c16.869-15.43 31.658-33.091 43.911-52.513-21.713 13.702-45.627 24.23-71.096 30.932z" fill="#4c5659"/></g><g><path d="m80.217 175.783c0-35.107 7.073-68.559 19.862-99.02l-16.805-9.703c-38.224 34.964-65.791 81.374-77.301 133.803l18.023 10.406c6.375 3.68 14.229 3.68 20.604 0l36.046-20.811c-.275-4.859-.429-9.749-.429-14.675z" fill="#4c5659"/></g></g></svg>