<svg id="Capa_1" enable-background="new 0 0 512 512" height="512" viewBox="0 0 512 512" width="512" xmlns="http://www.w3.org/2000/svg"><g><g><g><path d="m421 467.665c-8.284 0-15-6.716-15-15v-67.906c0-21.849-17.775-39.625-39.625-39.625s-39.625 17.776-39.625 39.625v43.281c0 38.392-31.233 69.625-69.625 69.625s-69.625-31.234-69.625-69.625v-44.948c0-8.284 6.716-15 15-15s15 6.716 15 15v44.948c0 21.849 17.775 39.625 39.625 39.625s39.625-17.776 39.625-39.625v-43.281c0-38.392 31.233-69.625 69.625-69.625s69.625 31.233 69.625 69.625v67.906c0 8.284-6.716 15-15 15z" fill="#b3e59f"/></g><g fill="#95d6a4"><path d="m348.321 345.134c-21.85 0-39.625 17.776-39.625 39.625v43.281c0 35.331-26.458 64.578-60.598 69.021 2.958.385 5.966.604 9.027.604 38.392 0 69.625-31.233 69.625-69.625v-43.281c0-18.743 13.085-34.478 30.598-38.575-2.902-.68-5.921-1.05-9.027-1.05z"/><path d="m199.446 383.091v44.948c0 21.849 17.775 39.625 39.625 39.625 3.106 0 6.125-.371 9.027-1.05-17.512-4.098-30.598-19.832-30.598-38.575v-44.948c0-8.284-6.716-15-15-15-3.394 0-6.514 1.14-9.027 3.041 3.622 2.738 5.973 7.069 5.973 11.959z"/><path d="m366.375 315.134c-3.061 0-6.069.22-9.027.604 34.14 4.442 60.598 33.689 60.598 69.021v67.906c0 4.891-2.351 9.221-5.973 11.959 2.513 1.9 5.633 3.041 9.027 3.041 8.284 0 15-6.716 15-15v-67.906c0-38.392-31.233-69.625-69.625-69.625z"/></g><g><g><path d="m130 48.5h15c11.322 0 20.5-9.178 20.5-20.5 0-11.322-9.178-20.5-20.5-20.5h-15c-11.322 0-20.5 9.178-20.5 20.5 0 11.322 9.178 20.5 20.5 20.5z" fill="#655e67"/><path d="m145 7.5h-15c-1.46 0-2.882.158-4.256.449 9.278 1.96 16.244 10.189 16.244 20.051 0 9.862-6.966 18.091-16.244 20.051 1.374.291 2.796.449 4.256.449h15c11.322 0 20.5-9.178 20.5-20.5 0-11.322-9.178-20.5-20.5-20.5z" fill="#544f56"/></g><g><path d="m275 48.5h-15c-11.322 0-20.5-9.178-20.5-20.5 0-11.322 9.178-20.5 20.5-20.5h15c11.322 0 20.5 9.178 20.5 20.5 0 11.322-9.178 20.5-20.5 20.5z" fill="#655e67"/><path d="m275 7.5h-15c-1.315 0-2.598.136-3.844.373 9.482 1.801 16.656 10.121 16.656 20.127 0 10.006-7.173 18.326-16.656 20.127 1.246.237 2.529.373 3.844.373h15c11.322 0 20.5-9.178 20.5-20.5 0-11.322-9.178-20.5-20.5-20.5z" fill="#544f56"/></g><path d="m351.5 170.721c0-8.569-7.185-15.46-15.859-14.976-8.011.447-14.114 7.365-14.142 15.388-.223 65.428-53.519 118.588-118.999 118.588s-118.776-53.16-118.999-118.588c-.027-8.023-6.131-14.941-14.142-15.388-8.674-.484-15.859 6.407-15.859 14.976 0 76.181 57.469 139.19 131.33 147.956 1.518.18 2.67 1.449 2.67 2.978v62.441c0 8.077 6.207 15.027 14.275 15.407 8.614.406 15.725-6.458 15.725-14.983v-62.865c0-1.529 1.152-2.798 2.67-2.978 73.861-8.766 131.33-71.775 131.33-147.956z" fill="#e2dfe3"/><g fill="#d3ced4"><path d="m66.179 167.24c0 60.621 45.566 110.797 104.246 118.085-50.086-14.036-86.925-60.096-86.925-114.604 0-8.284-6.716-15-15-15-2.245 0-4.367.507-6.279 1.391 2.45 2.67 3.958 6.218 3.958 10.128z"/><path d="m338.479 155.852c-2.977-.393-5.793.12-8.259 1.26 2.45 2.669 3.958 6.218 3.958 10.127 0 72.813-52.5 133.593-121.634 146.479-7.2 1.342-12.366 7.719-12.366 15.043v52.277c0 6.039-3.577 11.231-8.721 13.609 2.877 3.135 7.058 5.056 11.694 4.859 8.1-.345 14.348-7.318 14.348-15.426v-62.426c0-1.528 1.152-2.797 2.669-2.977 73.704-8.747 131.086-71.507 131.33-147.469.026-7.631-5.454-14.358-13.019-15.356z"/></g></g><circle cx="421" cy="467" fill="#e2dfe3" r="37.5"/><path d="m421 429.5c-5.335 0-10.406 1.121-15 3.129 13.242 5.788 22.5 18.995 22.5 34.371s-9.258 28.583-22.5 34.371c4.594 2.008 9.665 3.129 15 3.129 20.711 0 37.5-16.789 37.5-37.5s-16.789-37.5-37.5-37.5z" fill="#d3ced4"/></g><path d="m421 459.5c-4.136 0-7.5 3.364-7.5 7.5s3.364 7.5 7.5 7.5 7.5-3.364 7.5-7.5-3.364-7.5-7.5-7.5zm22.5-31.446v-43.294c0-15.047-4.354-29.64-12.593-42.202-2.271-3.463-6.919-4.429-10.385-2.158-3.464 2.271-4.43 6.921-2.158 10.384 6.631 10.111 10.136 21.86 10.136 33.976v37.877c-2.441-.411-4.944-.637-7.5-.637s-5.059.226-7.5.637v-37.877c0-25.987-21.138-47.13-47.12-47.13-25.987 0-47.13 21.143-47.13 47.13v43.28c0 34.253-27.871 62.12-62.13 62.12-34.253 0-62.12-27.867-62.12-62.12v-22.312c2.327.834 4.95 1.292 7.519 1.292 2.591 0 5.106-.458 7.481-1.297v22.317c0 25.982 21.138 47.12 47.12 47.12 25.987 0 47.13-21.138 47.13-47.12v-43.28c0-34.258 27.871-62.13 62.13-62.13 10.166 0 20.255 2.521 29.176 7.291 3.654 1.952 8.197.575 10.15-3.078s.574-8.197-3.078-10.15c-11.089-5.928-23.623-9.062-36.248-9.062-42.529 0-77.13 34.6-77.13 77.13v43.28c0 17.711-14.413 32.12-32.13 32.12-17.711 0-32.12-14.409-32.12-32.12v-102.435c76.673-11.062 134-76.954 134-154.885 0-9.429-6.171-18.14-15-21.23v-71.991c0-25.834-17.146-48.042-41.522-54.867-2.511-12.88-13.874-22.633-27.478-22.633h-15c-15.439 0-28 12.561-28 28s12.561 28 28 28h15c11.939 0 22.151-7.514 26.17-18.058 16.479 5.862 27.83 21.51 27.83 39.558v72.027c-8.74 3.148-14.968 11.656-15.001 21.58-.208 61.268-50.227 111.114-111.499 111.114-25.738 0-50.866-9.018-70.756-25.391-3.197-2.632-7.924-2.175-10.557 1.023s-2.175 7.925 1.023 10.557c22.567 18.579 51.081 28.811 80.289 28.811 69.516 0 126.263-56.552 126.499-126.063.014-4.153 3.181-7.708 7.059-7.925 4.244-.237 7.942 3.228 7.942 7.488 0 71.665-53.615 132.07-124.714 140.508-5.294.628-9.286 5.11-9.286 10.425v62.865c.023 4.21-3.668 7.689-7.873 7.491-3.93-.185-7.127-3.736-7.127-7.915v-62.441c0-5.315-3.992-9.797-9.286-10.425-71.098-8.438-124.713-68.843-124.713-140.508 0-4.255 3.694-7.725 7.941-7.488 3.879.216 7.046 3.771 7.06 7.925.085 25.115 7.547 49.377 21.578 70.165 2.317 3.433 6.977 4.337 10.413 2.021 3.433-2.317 4.338-6.979 2.021-10.413-12.362-18.314-18.937-39.692-19.012-61.823-.033-9.924-6.26-18.432-15.001-21.58v-72.028c0-18.048 11.351-33.696 27.83-39.558 4.019 10.544 14.231 18.058 26.17 18.058h15c15.439 0 28-12.561 28-28s-12.561-28-28-28h-15c-13.604 0-24.967 9.753-27.478 22.633-24.376 6.825-41.522 29.033-41.522 54.867v71.993c-8.84 3.097-15 11.824-15 21.228 0 77.931 57.327 143.823 134 154.885v102.434c0 42.524 34.596 77.12 77.12 77.12 42.529 0 77.13-34.596 77.13-77.12v-43.28c0-17.716 14.413-32.13 32.13-32.13 17.711 0 32.12 14.414 32.12 32.13v43.294c-13.437 7.793-22.5 22.326-22.5 38.946 0 24.813 20.187 45 45 45s45-20.187 45-45c0-16.62-9.063-31.153-22.5-38.946zm-168.5-387.054h-15c-7.168 0-13-5.832-13-13s5.832-13 13-13h15c7.168 0 13 5.832 13 13s-5.832 13-13 13zm-145-26h15c7.168 0 13 5.832 13 13s-5.832 13-13 13h-15c-7.168 0-13-5.832-13-13s5.832-13 13-13zm291 482c-16.542 0-30-13.458-30-30s13.458-30 30-30 30 13.458 30 30-13.458 30-30 30z"/></g></svg>