<svg id="Capa_1" enable-background="new 0 0 512 512" height="512" viewBox="0 0 512 512" width="512" xmlns="http://www.w3.org/2000/svg"><g><path d="m481 0v362c0 49.8-40.5 90-90 90-26.82 0-47.94-11.95-60-23.4-18.3-16.2-30-40.2-30-66.6s11.7-50.4 30-66.9c15.9-14.4 37.2-23.1 60-23.1 36.01 0 59.09 22.62 60 23.4v-138.2l-120 26.7-120 26.7v211.4c0 49.5-40.5 90-90 90s-90-40.5-90-90 40.5-90 90-90c23.1 0 44.1 9 60 23.4 0-260.4 0 1.6 0-288.8z" fill="#4da6ff"/><path d="m481 0v362c0 49.8-40.5 90-90 90-26.82 0-47.94-11.95-60-23.4v-133.5c15.9-14.4 37.2-23.1 60-23.1 36.01 0 59.09 22.62 60 23.4v-138.2l-120 26.7v-150.6z" fill="#37f"/></g></svg>