<svg height="504pt" viewBox="0 -71 504 504" width="504pt" xmlns="http://www.w3.org/2000/svg"><path d="m432 137.5h-49.246094l-6.113281-16-4.320313-11.203125-3.449218-8.949219-10.390625-26.96875-6.878907-17.914062-4.320312-11.191406-5.769531-14.964844 74.640625-28.722656c12.40625-4.71875 26.328125 1.441406 31.046875 13.839843l22.953125 59.679688c-12.3125 4.800781-18.480469 18.632812-13.761719 31.042969 3.601563 9.511718 12.730469 15.359374 22.320313 15.359374l8.722656-1.601562 9.359375 24.449219zm0 0" fill="#f6bb42"/><path d="m424.398438 160.644531c-1.605469 0-3.125-.96875-3.734376-2.5625l-44.398437-115.375c-.792969-2.0625.230469-4.382812 2.292969-5.167969 2.097656-.800781 4.386718.230469 5.167968 2.296876l44.402344 115.375c.792969 2.0625-.234375 4.382812-2.296875 5.167968-.472656.183594-.960937.265625-1.433593.265625zm0 0" fill="#edab37"/><path d="m439.511719 155.417969c-1.609375 0-3.128907-.976563-3.734375-2.558594l-30.234375-78.5625c-.789063-2.0625.234375-4.375 2.296875-5.167969 2.089844-.78125 4.382812.234375 5.167968 2.296875l30.230469 78.5625c.792969 2.0625-.230469 4.375-2.292969 5.167969-.464843.175781-.953124.261719-1.433593.261719zm0 0" fill="#edab37"/><path d="m400 361.507812h-376c-13.28125 0-24-10.722656-24-24v-64c13.28125 0 24-10.722656 24-24 0-13.28125-10.71875-24-24-24v-64c0-13.28125 10.71875-24 24-24h376zm0 0" fill="#ac92ec"/><path d="m400 337.507812v-200h80c13.28125 0 24 10.71875 24 24v64c-13.28125 0-24 10.71875-24 24 0 13.277344 10.71875 24 24 24v64c0 13.277344-10.71875 24-24 24h-80zm0 0" fill="#ffce54"/><path d="m104.398438 137.5h-41.644532l278.757813-107.203125 5.769531 14.96875 4.320312 11.191406 6.886719 17.921875 10.382813 26.96875 3.449218 8.949219 10.433594 27.203125zm0 0" fill="#967adc"/><path d="m400 169.5c-2.207031 0-4-1.792969-4-4v-12c0-2.210938 1.792969-4 4-4s4 1.789062 4 4v12c0 2.214844-1.792969 4-4 4zm0 0" fill="#ac92ec"/><path d="m400 313.507812c-2.207031 0-4-1.792968-4-4v-24c0-2.210937 1.792969-4 4-4s4 1.789063 4 4v24c0 2.207032-1.792969 4-4 4zm0-48c-2.207031 0-4-1.792968-4-4v-24c0-2.210937 1.792969-4 4-4s4 1.789063 4 4v24c0 2.207032-1.792969 4-4 4zm0-48c-2.207031 0-4-1.792968-4-4v-24c0-2.21875 1.792969-4 4-4s4 1.789063 4 4v24c0 2.207032-1.792969 4-4 4zm0 0" fill="#ac92ec"/><path d="m400 349.507812c-2.207031 0-4-1.792968-4-4v-12c0-2.210937 1.792969-4 4-4s4 1.789063 4 4v12c0 2.207032-1.792969 4-4 4zm0 0" fill="#ac92ec"/><path d="m432 341.507812c-2.207031 0-4-1.792968-4-4v-176c0-2.210937 1.792969-4 4-4s4 1.789063 4 4v176c0 2.207032-1.792969 4-4 4zm0 0" fill="#f6bb42"/><path d="m448 301.507812c-2.207031 0-4-1.792968-4-4v-96c0-2.210937 1.792969-4 4-4s4 1.789063 4 4v96c0 2.207032-1.792969 4-4 4zm0 0" fill="#f6bb42"/><g fill="#967adc"><path d="m116.238281 325.507812h-.078125c-2.199218 0-3.953125 1.789063-3.953125 4 0 2.207032 1.832031 4 4.039063 4 2.203125 0 4-1.792968 4-4 0-2.210937-1.796875-4-4.007813-4zm0 0"/><path d="m168.160156 245.507812c-2.199218 0-3.953125 1.789063-3.953125 4 0 2.207032 1.832031 4 4.039063 4 2.203125 0 4-1.792968 4-4 0-2.210937-1.796875-4-4-4zm0 0"/><path d="m200.238281 165.5c2.203125 0 4-1.792969 4-4 0-2.210938-1.796875-4-4-4h-.078125c-2.199218 0-3.953125 1.789062-3.953125 4 0 2.207031 1.824219 4 4.03125 4zm0 0"/><path d="m344.238281 181.5c2.203125 0 4-1.792969 4-4 0-2.210938-1.796875-4-4-4h-.078125c-2.199218 0-3.953125 1.789062-3.953125 4 0 2.207031 1.824219 4 4.03125 4zm0 0"/><path d="m272.160156 253.507812c-2.199218 0-3.953125 1.789063-3.953125 4 0 2.207032 1.832031 4 4.039063 4 2.203125 0 4-1.792968 4-4 0-2.210937-1.796875-4-4-4zm0 0"/><path d="m140.238281 325.507812h-.078125c-2.199218 0-3.953125 1.789063-3.953125 4 0 2.207032 1.832031 4 4.039063 4 2.203125 0 4-1.792968 4-4 0-2.210937-1.796875-4-4.007813-4zm0 0"/><path d="m164.238281 325.507812h-.078125c-2.199218 0-3.953125 1.789063-3.953125 4 0 2.207032 1.832031 4 4.039063 4 2.203125 0 4-1.792968 4-4 0-2.210937-1.796875-4-4.007813-4zm0 0"/><path d="m188.238281 325.507812h-.078125c-2.199218 0-3.953125 1.789063-3.953125 4 0 2.207032 1.832031 4 4.039063 4 2.203125 0 4-1.792968 4-4 0-2.210937-1.796875-4-4.007813-4zm0 0"/><path d="m212.238281 325.507812h-.078125c-2.199218 0-3.953125 1.789063-3.953125 4 0 2.207032 1.832031 4 4.039063 4 2.203125 0 4-1.792968 4-4 0-2.210937-1.796875-4-4.007813-4zm0 0"/><path d="m236.238281 325.507812h-.078125c-2.199218 0-3.953125 1.789063-3.953125 4 0 2.207032 1.832031 4 4.039063 4 2.203125 0 4-1.792968 4-4 0-2.210937-1.796875-4-4.007813-4zm0 0"/><path d="m260.238281 325.507812h-.078125c-2.199218 0-3.953125 1.789063-3.953125 4 0 2.207032 1.832031 4 4.039063 4 2.203125 0 4-1.792968 4-4 0-2.210937-1.796875-4-4.007813-4zm0 0"/><path d="m284.238281 325.507812h-.078125c-2.199218 0-3.953125 1.789063-3.953125 4 0 2.207032 1.832031 4 4.039063 4 2.203125 0 4-1.792968 4-4 0-2.210937-1.796875-4-4.007813-4zm0 0"/><path d="m308.238281 325.507812h-.078125c-2.199218 0-3.953125 1.789063-3.953125 4 0 2.207032 1.832031 4 4.039063 4 2.203125 0 4-1.792968 4-4 0-2.210937-1.796875-4-4.007813-4zm0 0"/></g><path d="m108 233.507812c0 2.207032 1.792969 4 4 4s4-1.792968 4-4v-44h12c2.207031 0 4-1.792968 4-4 0-2.210937-1.792969-4-4-4h-32c-2.207031 0-4 1.789063-4 4 0 2.207032 1.792969 4 4 4h12zm0 0" fill="#f5f7fa"/><path d="m324 181.5h-32c-2.207031 0-4 1.789062-4 4 0 2.207031 1.792969 4 4 4h12v44c0 2.207031 1.792969 4 4 4s4-1.792969 4-4v-44h12c2.207031 0 4-1.792969 4-4 0-2.210938-1.792969-4-4-4zm0 0" fill="#f5f7fa"/><path d="m144 237.507812c2.207031 0 4-1.792968 4-4v-48c0-2.210937-1.792969-4-4-4s-4 1.789063-4 4v48c0 2.207032 1.792969 4 4 4zm0 0" fill="#f5f7fa"/><path d="m212 237.507812c2.207031 0 4-1.792968 4-4v-14.664062l3.625-4.832031 12.941406 21.558593c.753906 1.25 2.082032 1.9375 3.433594 1.9375.703125 0 1.414062-.183593 2.0625-.570312 1.890625-1.144531 2.503906-3.589844 1.371094-5.496094l-14.625-24.34375 14.398437-19.199218c1.320313-1.777344.960938-4.273438-.808593-5.601563-1.757813-1.308594-4.261719-.957031-5.597657.808594l-16.800781 22.402343v-20c0-2.210937-1.792969-4-4-4s-4 1.789063-4 4v48c0 2.207032 1.792969 4 4 4zm0 0" fill="#f5f7fa"/><path d="m180 237.507812c8.824219 0 16-7.175781 16-16 0-2.210937-1.792969-4-4-4s-4 1.789063-4 4c0 4.414063-3.585938 8-8 8s-8-3.585937-8-8v-24c0-4.417968 3.585938-8 8-8s8 3.582032 8 8c0 2.207032 1.792969 4 4 4s4-1.792968 4-4c0-8.832031-7.175781-16-16-16s-16 7.167969-16 16v24c0 8.816407 7.175781 16 16 16zm0 0" fill="#f5f7fa"/><path d="m256 237.507812h24c2.207031 0 4-1.792968 4-4 0-2.210937-1.792969-4-4-4h-20v-16h12c2.207031 0 4-1.792968 4-4 0-2.210937-1.792969-4-4-4h-12v-16h20c2.207031 0 4-1.792968 4-4 0-2.210937-1.792969-4-4-4h-24c-2.207031 0-4 1.789063-4 4v48c0 2.207032 1.792969 4 4 4zm0 0" fill="#f5f7fa"/><path d="m312 277.507812h-200c-2.207031 0-4 1.789063-4 4 0 2.207032 1.792969 4 4 4h200c2.207031 0 4-1.792968 4-4 0-2.210937-1.792969-4-4-4zm0 0" fill="#967adc"/><path d="m260 297.507812c0-2.210937-1.792969-4-4-4h-88c-2.207031 0-4 1.789063-4 4 0 2.207032 1.792969 4 4 4h88c2.207031 0 4-1.792968 4-4zm0 0" fill="#967adc"/><path d="m352 229.507812h-4v-4c0-2.210937-1.792969-4-4-4s-4 1.789063-4 4v4h-4c-2.207031 0-4 1.789063-4 4 0 2.207032 1.792969 4 4 4h4v4c0 2.207032 1.792969 4 4 4s4-1.792968 4-4v-4h4c2.207031 0 4-1.792968 4-4 0-2.210937-1.792969-4-4-4zm0 0" fill="#967adc"/><path d="m72 189.507812h-4v-4c0-2.210937-1.792969-4-4-4s-4 1.78125-4 3.992188v4h-4c-2.207031 0-4 1.789062-4 4 0 2.207031 1.792969 4 4 4h4v4c0 2.207031 1.792969 4 4 4s4-1.792969 4-4v-4h4c2.207031 0 4-1.792969 4-4 0-2.210938-1.792969-3.992188-4-3.992188zm0 0" fill="#967adc"/><path d="m351.601562 60.457031c-1.601562 0-3.121093-.972656-3.738281-2.550781l-4.320312-11.199219c-.789063-2.0625.234375-4.375 2.296875-5.167969 2.046875-.800781 4.375.230469 5.167968 2.289063l4.320313 11.191406c.792969 2.0625-.230469 4.382813-2.296875 5.167969-.464844.191406-.953125.269531-1.429688.269531zm0 0" fill="#967adc"/><path d="m365.398438 96.332031c-1.605469 0-3.117188-.96875-3.734376-2.5625l-6.910156-17.949219c-.792968-2.066406.230469-4.378906 2.292969-5.167968 2.050781-.792969 4.367187.230468 5.167969 2.292968l6.914062 17.953126c.792969 2.0625-.234375 4.375-2.296875 5.167968-.464843.175782-.960937.265625-1.433593.265625zm0 0" fill="#967adc"/><path d="m376.640625 125.5c-1.601563 0-3.121094-.96875-3.738281-2.5625l-4.316406-11.191406c-.792969-2.0625.230468-4.382813 2.292968-5.167969 2.050782-.808594 4.378906.234375 5.167969 2.289063l4.320313 11.199218c.792968 2.0625-.230469 4.375-2.296876 5.167969-.460937.175781-.949218.265625-1.429687.265625zm0 0" fill="#967adc"/></svg>